<?xml version="1.0" encoding="utf-8"?>
<!-- Generator: Adobe Illustrator 19.1.0, SVG Export Plug-In . SVG Version: 6.00 Build 0)  -->
<svg version="1.1" id="Layer_1" xmlns="http://www.w3.org/2000/svg" xmlns:xlink="http://www.w3.org/1999/xlink" x="0px" y="0px"
	 viewBox="0 0 800 800" style="enable-background:new 0 0 800 800;" xml:space="preserve">
<style type="text/css">
	.st0{fill:#29224A;}
</style>
<g>
	<polygon class="st0" points="108.9,343.5 112.7,371.1 112.7,371 122.2,366.4 131.5,371.1 131.5,371.1 135.4,343.5 135.4,343.5 
		135.4,343.5 135.4,343.5 135.4,343.5 122.2,325.7 109,343.5 108.9,343.5 108.9,343.5 108.9,343.5 	"/>
	<polygon class="st0" points="141.2,377.2 146.8,381.5 146.8,381.5 159.4,360.3 159.4,360.3 159.4,360.3 159.4,360.3 159.4,360.3 
		151.8,348 141.4,362.2 141.4,362.2 141.2,377.2 141.2,377.2 141.2,377.2 141.2,377.2 	"/>
	<polygon class="st0" points="84.9,360.3 97.5,381.5 97.5,381.5 103.1,377.2 103.1,377.2 103.1,377.2 103.1,377.2 103.1,377.2 
		102.9,362.2 102.9,362.2 92.5,348 84.9,360.3 84.9,360.3 84.9,360.3 84.9,360.3 	"/>
	<polygon class="st0" points="172.4,391.5 172.4,391.5 169.4,374.7 152.3,398.9 152.3,398.9 152.3,398.9 152.3,398.9 152.3,398.9 
		153,407.4 153,407.4 160.8,410.8 160.9,410.8 160.8,410.8 172.4,391.5 172.4,391.5 172.4,391.5 	"/>
	<polygon class="st0" points="91.3,407.4 91.3,407.4 92,398.9 92,398.9 92,398.9 92,398.9 92,398.9 74.9,374.7 71.9,391.5 
		71.9,391.5 71.9,391.5 71.9,391.5 71.9,391.5 83.5,410.8 83.5,410.8 83.5,410.8 	"/>
	<polygon class="st0" points="160.7,419.8 160.7,419.9 141.4,408.7 141.4,408.7 141.4,408.7 141.4,408.7 141.4,408.7 141.4,408.7 
		141.4,386.6 141.4,386.6 122.2,375.5 102.9,386.6 102.9,386.6 102.9,408.7 102.9,408.7 102.9,408.7 102.9,408.7 83.7,419.9 
		83.6,419.8 83.6,442.1 83.6,442.1 83.6,442.1 83.6,442.1 83.7,442.1 102.9,453.2 102.9,453.2 102.9,453.2 102.9,453.2 122.2,442.1 
		122.2,442.1 122.2,442.1 122.2,442.1 141.4,453.2 141.4,453.2 141.4,453.2 160.7,442.1 160.7,442.1 160.7,442.1 160.7,442.1 
		160.7,442.1 	"/>
</g>
<g>
	<path class="st0" d="M229,430.1h-11.6v-72.4H229v28.4c3.3-4.3,8.8-6.1,13.9-6.1c12,0,17.8,8.6,17.8,19.3v30.8h-11.6v-28.8
		c0-6-2.7-10.8-10-10.8c-6.4,0-9.9,4.8-10.1,11V430.1z"/>
	<path class="st0" d="M282.5,402.2l12.5-1.9c2.8-0.4,3.6-1.8,3.6-3.5c0-4.1-2.8-7.4-9.2-7.4c-6.1,0-9.5,3.9-10,8.8l-10.6-2.4
		c0.9-8.4,8.5-15.9,20.5-15.9c15,0,20.7,8.5,20.7,18.2v24.2c0,4.4,0.5,7.3,0.6,7.8h-10.8c-0.1-0.3-0.5-2.3-0.5-6.2
		c-2.3,3.7-7.1,7.7-15,7.7c-10.2,0-16.5-7-16.5-14.7C267.8,408.2,274.2,403.4,282.5,402.2z M298.6,409.9v-2.2l-12.7,1.9
		c-3.6,0.6-6.5,2.6-6.5,6.6c0,3.3,2.5,6.3,7.1,6.3C293,422.5,298.6,419.4,298.6,409.9z"/>
	<path class="st0" d="M329.7,405.7c0,9.8,6.3,15.3,13.6,15.3c7.6,0,11.1-5.3,12.2-9l10.2,3.7c-2.3,7.6-9.6,15.9-22.4,15.9
		c-14.3,0-25.2-11.1-25.2-25.9c0-15,10.9-25.8,24.9-25.8c13.1,0,20.3,8.2,22.3,16l-10.4,3.8c-1.1-4.3-4.4-9.1-11.8-9.1
		C336,390.6,329.7,395.9,329.7,405.7z"/>
	<path class="st0" d="M397.6,402l20.4,28.1h-14.2l-14.3-19.9l-6,6.3v13.6H372v-72.4h11.5v43.4l18.7-19.7h15.4L397.6,402z"/>
	<path class="st0" d="M453.6,416.1c-1.9,2.9-5.1,4.5-8.2,4.5c-6.2,0-10.6-4.9-10.6-12c0-9.2,6.4-16,13.9-16c2.8,0,6,1.3,7.1,4.3
		l0.6-3.4h6.2l-3.7,17.4c-0.1,0.4-0.2,1.1-0.2,1.5c0,1.4,0.6,2.7,2.4,2.7c3.7,0,7.2-5.6,7.2-12.5c0-10-7.6-17.2-18.9-17.2
		c-12,0-21,8.7-21,21.7c0,11.9,8.1,20.9,21.6,20.9c4.7,0,9.5-1.4,13.5-4.5l3.2,4.3c-3.9,3.6-10.9,5.9-16.7,5.9
		c-16.4,0-28.1-10.6-28.1-26.5c0-16.3,12.4-27.4,27.4-27.4c14.3,0,25.1,9.8,25.1,22.9c0,10.6-6.5,18.1-13.8,18.1
		C456.9,420.5,454.3,418.8,453.6,416.1z M448.9,398.4c-4.8,0-7.6,5.1-7.6,9.7c0,3.8,1.6,6.7,5.4,6.7c4.3,0,7.4-4.3,7.5-10.4
		C454.2,400.7,452.3,398.4,448.9,398.4z"/>
	<path class="st0" d="M482.8,430.1v-72.4h11.4v29.7c2.2-3.8,7.8-7.3,15.3-7.3c14.6,0,22.5,11.1,22.5,25.4c0,14.7-8.7,25.8-22.9,25.8
		c-6.9,0-12.2-3-15-7.7v6.5H482.8z M507.2,390.4c-7.4,0-13.1,5.5-13.1,15.2c0,9.6,5.7,15.4,13.1,15.4c7.6,0,13.1-5.8,13.1-15.4
		C520.3,395.9,514.9,390.4,507.2,390.4z"/>
	<path class="st0" d="M567.7,392.9c-1.3-0.2-2.6-0.3-3.8-0.3c-9,0-13.1,5.2-13.1,14.3v23.2h-11.6v-48.7h11.3v7.8
		c2.3-5.3,7.7-8.4,14.1-8.4c1.4,0,2.6,0.2,3.1,0.3V392.9z"/>
	<path class="st0" d="M621.6,405.7c0,15-10.7,25.9-25.3,25.9c-14.5,0-25.2-10.9-25.2-25.9c0-14.9,10.7-25.8,25.2-25.8
		C610.9,379.9,621.6,390.8,621.6,405.7z M609.9,405.7c0-10.1-6.4-15.3-13.6-15.3c-7.1,0-13.6,5.2-13.6,15.3s6.5,15.5,13.6,15.5
		C603.5,421.2,609.9,415.9,609.9,405.7z"/>
	<path class="st0" d="M669.2,381.4l11.5,33.7l9.7-33.7h11.8l-15.6,48.7H675l-12.1-35l-11.8,35h-11.9l-15.8-48.7h12.4l9.9,33.7
		l11.5-33.7H669.2z"/>
	<path class="st0" d="M718.6,430.1H707v-48.7h11.3v6.5c3.2-5.6,9-7.9,14.4-7.9c11.9,0,17.6,8.6,17.6,19.3v30.8h-11.6v-28.8
		c0-6-2.7-10.8-10-10.8c-6.6,0-10.1,5.1-10.1,11.5V430.1z"/>
</g>
</svg>
