<?xml version="1.0" encoding="utf-8"?>
<!-- Generator: Adobe Illustrator 19.1.0, SVG Export Plug-In . SVG Version: 6.00 Build 0)  -->
<svg version="1.1" id="Layer_1" xmlns="http://www.w3.org/2000/svg" xmlns:xlink="http://www.w3.org/1999/xlink" x="0px" y="0px"
	 viewBox="0 0 800 800" style="enable-background:new 0 0 800 800;" xml:space="preserve">
<style type="text/css">
	.st0{fill:#29224A;}
</style>
<g>
	<polygon class="st0" points="331.4,161.4 350.9,304.6 350.9,304.5 400,280.5 448.6,304.5 448.7,304.6 468.6,161.4 468.6,161.4 
		468.6,161.4 468.6,161.3 468.6,161.3 400,68.8 331.4,161.3 331.4,161.3 331.4,161.4 331.4,161.4 	"/>
	<polygon class="st0" points="499.1,336.3 527.9,358.6 527.9,358.7 593.7,248.5 593.7,248.5 593.7,248.5 593.7,248.4 593.7,248.5 
		553.9,184.9 500,258.5 499.9,258.5 499.1,336.3 499.1,336.3 499.1,336.3 499.1,336.4 	"/>
	<polygon class="st0" points="206.3,248.5 272.1,358.7 272.1,358.6 300.9,336.3 300.9,336.4 300.9,336.3 300.9,336.3 300.9,336.3 
		300.1,258.5 300,258.5 246.1,184.9 206.3,248.5 206.3,248.4 206.3,248.5 206.3,248.5 	"/>
	<polygon class="st0" points="661.1,410.5 661.1,410.5 645.5,323.5 556.8,449 556.8,449 556.8,449.1 556.8,449.1 556.8,449.1 
		560.3,493.2 560.3,493.1 601,511 601,510.9 601,511 661.1,410.6 661.1,410.6 661.1,410.5 	"/>
	<polygon class="st0" points="239.7,493.1 239.7,493.2 243.2,449.1 243.2,449.1 243.2,449.1 243.2,449 243.2,449 154.5,323.5 
		138.9,410.5 138.9,410.5 138.9,410.5 138.9,410.6 138.9,410.6 199,511 199,510.9 199,511 	"/>
	<polygon class="st0" points="600.1,558 600,558 500.1,500.3 500.1,500.3 500.1,500.3 500,500.3 500.1,500.3 500,500.3 500,385.4 
		500,385.4 400,327.7 300,385.4 300,385.4 300,500.3 299.9,500.3 299.9,500.3 299.9,500.3 200,558 199.9,558 199.9,673.5 
		199.9,673.5 199.9,673.5 199.9,673.5 200,673.5 299.9,731.2 299.9,731.2 299.9,731.2 299.9,731.2 400,673.5 400,673.5 400,673.5 
		400.1,673.5 500.1,731.2 500.1,731.2 500.1,731.2 600,673.5 600.1,673.5 600.1,673.4 600.1,673.4 600.1,673.4 	"/>
</g>
</svg>
